<svg id="图层_1" data-name="图层 1" xmlns="http://www.w3.org/2000/svg" viewBox="0 0 23 16"><title>favicon</title><path d="M5.9,12a.85.85,0,0,0,.59-.2c.51-.37.34-1,.79-1.24a.76.76,0,0,1,.87.13c.17.2.07.42.1.91s.06,1,.45,1.3a1.27,1.27,0,0,0,1.55-.25c.47-.53,0-1.23.47-1.62a1.22,1.22,0,0,1,1.47.09c.49.47,0,1.21.52,1.65a1.28,1.28,0,0,0,1.57,0c.54-.49,0-1.38.59-1.87a1,1,0,0,1,1.06-.13c.36.24.16.79.58,1.1a.72.72,0,0,0,.75.09c.29-.18.25-.71.23-.91-.08-1.13-2.31-4.19-5.61-4.48v-2a1.23,1.23,0,0,0,.83-1.16,1.24,1.24,0,1,0-2.48,0,1.22,1.22,0,0,0,.82,1.16v2c-3.71.23-5.6,4-5.72,4.45a.91.91,0,0,0,0,.55A.75.75,0,0,0,5.9,12Z" transform="translate(0 -2.15)"/><path d="M6.29,12.73l.12-.15a1.65,1.65,0,0,1-1.76-1.1,1.53,1.53,0,0,1,.27-1.19h0C1.89,10.68,0,11.88,0,12.82s1.63,1.64,3.65,2Z" transform="translate(0 -2.15)"/><path d="M18.09,10.3h0a1.53,1.53,0,0,1,.27,1.19,1.65,1.65,0,0,1-1.76,1.1l.12.15,2.64,2.12c2-.39,3.61-1.19,3.65-2S21.11,10.68,18.09,10.3Z" transform="translate(0 -2.15)"/><path d="M18.64,17.61a.61.61,0,0,1-.47-.21l-.82-2.2L18.69,15l-2.44-1.82a24.87,24.87,0,0,1-9.41,0L4.18,15a11.38,11.38,0,0,0,1.26.27L4.65,17.4a.61.61,0,0,1-.47.21c-.25-.05-.63.09-.52.29s.14.25.32.25H5.22l.93-2.78a34.12,34.12,0,0,0,4.85.3v1.89s-.38-.07-.54.11a.32.32,0,0,0,.18.48c.16,0,.77,0,.77,0s.61,0,.77,0a.32.32,0,0,0,.18-.48c-.16-.18-.54-.11-.54-.11v-1.9a45.4,45.4,0,0,0,4.82-.37l1,2.86h1.24c.18,0,.21,0,.32-.25S18.89,17.56,18.64,17.61Z" transform="translate(0 -2.15)"/></svg>